<svg width="1080" height="1920" viewBox="0 0 1080 1920" fill="none" xmlns="http://www.w3.org/2000/svg">
<g clip-path="url(#clip0_752_4621)">
<rect width="1080" height="1920" fill="#0DB14B"/>
<g clip-path="url(#clip1_752_4621)">
<path d="M794.07 161.164C793.373 161.164 792.727 160.698 792.521 159.973L787.05 140.348C786.818 139.494 787.308 138.588 788.16 138.355C789.011 138.122 789.914 138.614 790.147 139.468L795.618 159.093C795.85 159.947 795.36 160.853 794.508 161.086C794.353 161.138 794.224 161.138 794.07 161.138V161.164Z" fill="black"/>
<path d="M803.338 160.282H803.286C802.383 160.282 801.686 159.505 801.712 158.625L802.589 124.579C802.589 123.699 803.338 123 804.189 123H804.241C805.144 123 805.841 123.777 805.815 124.657L804.963 158.702C804.963 159.583 804.215 160.282 803.363 160.282H803.338Z" fill="black"/>
<path d="M1026.52 203.152C1026.52 203.152 1026.27 203.152 1026.14 203.101C1025.29 202.894 1024.74 202.013 1024.95 201.133L1029.8 181.508C1030.01 180.654 1030.91 180.11 1031.76 180.318C1032.62 180.525 1033.16 181.405 1032.95 182.285L1028.1 201.91C1027.92 202.635 1027.25 203.127 1026.52 203.127V203.152Z" fill="black"/>
<path d="M1017.03 203.155C1016.23 203.155 1015.53 202.559 1015.43 201.757L1011.74 172.993C1011.63 172.113 1012.25 171.284 1013.13 171.181C1014.03 171.051 1014.83 171.698 1014.94 172.579L1018.63 201.342C1018.73 202.223 1018.11 203.051 1017.23 203.155C1017.16 203.155 1017.11 203.155 1017.03 203.155Z" fill="black"/>
<path d="M891.649 290.996C891.649 290.996 891.391 290.996 891.262 290.944C890.411 290.737 889.869 289.857 890.075 288.977L894.927 269.352C895.134 268.498 896.037 267.954 896.888 268.161C897.74 268.368 898.282 269.249 898.076 270.129L893.224 289.754C893.043 290.478 892.372 290.97 891.649 290.97V290.996Z" fill="black"/>
<path d="M882.153 290.998C881.353 290.998 880.657 290.403 880.553 289.6L876.863 260.837C876.76 259.956 877.379 259.128 878.256 259.024C879.16 258.895 879.96 259.542 880.063 260.422L883.753 289.186C883.857 290.066 883.237 290.895 882.36 290.998C882.282 290.998 882.231 290.998 882.153 290.998Z" fill="black"/>
</g>
<g clip-path="url(#clip2_752_4621)">
<path d="M179.524 231.152C179.524 231.152 179.266 231.152 179.137 231.101C178.286 230.894 177.744 230.013 177.95 229.133L182.802 209.508C183.009 208.654 183.912 208.11 184.763 208.318C185.615 208.525 186.157 209.405 185.951 210.285L181.099 229.91C180.918 230.635 180.247 231.127 179.524 231.127V231.152Z" fill="black"/>
<path d="M170.028 231.155C169.228 231.155 168.532 230.559 168.428 229.757L164.738 200.993C164.635 200.113 165.254 199.284 166.131 199.181C167.035 199.051 167.835 199.698 167.938 200.579L171.628 229.342C171.732 230.223 171.112 231.051 170.235 231.155C170.157 231.155 170.106 231.155 170.028 231.155Z" fill="black"/>
<path d="M44.6495 318.996C44.6495 318.996 44.3914 318.996 44.2624 318.944C43.4107 318.737 42.8687 317.857 43.0752 316.977L47.9271 297.352C48.1335 296.498 49.0368 295.954 49.8885 296.161C50.7401 296.368 51.2821 297.249 51.0756 298.129L46.2237 317.754C46.0431 318.478 45.3721 318.97 44.6495 318.97V318.996Z" fill="black"/>
<path d="M35.1534 318.998C34.3534 318.998 33.6565 318.403 33.5533 317.6L29.8628 288.837C29.7596 287.956 30.379 287.128 31.2564 287.024C32.1597 286.895 32.9597 287.542 33.063 288.422L36.7535 317.186C36.8567 318.066 36.2373 318.895 35.3599 318.998C35.2824 318.998 35.2308 318.998 35.1534 318.998Z" fill="black"/>
</g>
<g clip-path="url(#clip3_752_4621)">
<path d="M751.07 1852.16C750.373 1852.16 749.727 1851.7 749.521 1850.97L744.05 1831.35C743.818 1830.49 744.308 1829.59 745.16 1829.35C746.011 1829.12 746.914 1829.61 747.147 1830.47L752.618 1850.09C752.85 1850.95 752.36 1851.85 751.508 1852.09C751.353 1852.14 751.224 1852.14 751.07 1852.14V1852.16Z" fill="black"/>
<path d="M760.338 1851.28H760.286C759.383 1851.28 758.686 1850.5 758.712 1849.62L759.589 1815.58C759.589 1814.7 760.338 1814 761.189 1814H761.241C762.144 1814 762.841 1814.78 762.815 1815.66L761.963 1849.7C761.963 1850.58 761.215 1851.28 760.363 1851.28H760.338Z" fill="black"/>
<path d="M983.524 1894.15C983.524 1894.15 983.266 1894.15 983.137 1894.1C982.286 1893.89 981.744 1893.01 981.95 1892.13L986.802 1872.51C987.009 1871.65 987.912 1871.11 988.763 1871.32C989.615 1871.52 990.157 1872.4 989.951 1873.29L985.099 1892.91C984.918 1893.63 984.247 1894.13 983.524 1894.13V1894.15Z" fill="black"/>
<path d="M974.028 1894.15C973.228 1894.15 972.532 1893.56 972.428 1892.76L968.738 1863.99C968.635 1863.11 969.254 1862.28 970.131 1862.18C971.035 1862.05 971.835 1862.7 971.938 1863.58L975.628 1892.34C975.732 1893.22 975.112 1894.05 974.235 1894.15C974.157 1894.15 974.106 1894.15 974.028 1894.15Z" fill="black"/>
</g>
<g clip-path="url(#clip4_752_4621)">
<path d="M88.5245 1212.15C88.5245 1212.15 88.2664 1212.15 88.1374 1212.1C87.2857 1211.89 86.7437 1211.01 86.9502 1210.13L91.8021 1190.51C92.0085 1189.65 92.9118 1189.11 93.7635 1189.32C94.6151 1189.52 95.1571 1190.4 94.9506 1191.29L90.0987 1210.91C89.9181 1211.63 89.2471 1212.13 88.5245 1212.13V1212.15Z" fill="black"/>
<path d="M79.0284 1212.15C78.2283 1212.15 77.5315 1211.56 77.4283 1210.76L73.7378 1181.99C73.6346 1181.11 74.254 1180.28 75.1314 1180.18C76.0347 1180.05 76.8347 1180.7 76.938 1181.58L80.6285 1210.34C80.7317 1211.22 80.1123 1212.05 79.2349 1212.15C79.1574 1212.15 79.1058 1212.15 79.0284 1212.15Z" fill="black"/>
</g>
<path d="M11.4217 388.5H-11.3978C-125.049 388.5 -217.5 295.972 -217.5 182.245V-142.245C-217.5 -255.972 -125.049 -348.5 -11.3978 -348.5H11.4217C125.049 -348.5 217.5 -255.972 217.5 -142.245V182.245C217.5 295.972 125.049 388.5 11.4217 388.5ZM-11.3978 -209.506C-48.4553 -209.506 -78.6265 -179.332 -78.6265 -142.245V182.245C-78.6265 219.332 -48.4796 249.506 -11.3978 249.506H11.4217C48.48 249.506 78.6265 219.332 78.6265 182.245V-142.245C78.6265 -179.332 48.48 -209.506 11.4217 -209.506H-11.3978Z" fill="#FFDE00" stroke="white" stroke-width="3"/>
<path d="M986.136 2244.5H969.881C889.162 2244.5 823.5 2178.8 823.5 2098.04V1866.96C823.5 1786.2 889.162 1720.5 969.881 1720.5H986.136C1066.84 1720.5 1132.5 1786.2 1132.5 1866.96V2098.04C1132.5 2178.8 1066.84 2244.5 986.136 2244.5ZM969.881 1818.62C943.246 1818.62 921.561 1840.3 921.561 1866.96V2098.04C921.561 2124.7 943.228 2146.38 969.881 2146.38H986.136C1012.77 2146.38 1034.44 2124.69 1034.44 2098.04V1866.96C1034.44 1840.31 1012.77 1818.62 986.136 1818.62H969.881Z" fill="#FFDE00" stroke="white" stroke-width="3"/>
</g>
<defs>
<clipPath id="clip0_752_4621">
<rect width="1080" height="1920" fill="white"/>
</clipPath>
<clipPath id="clip1_752_4621">
<rect width="246" height="168" fill="white" transform="translate(787 123)"/>
</clipPath>
<clipPath id="clip2_752_4621">
<rect width="246" height="168" fill="white" transform="translate(-60 151)"/>
</clipPath>
<clipPath id="clip3_752_4621">
<rect width="246" height="168" fill="white" transform="translate(744 1814)"/>
</clipPath>
<clipPath id="clip4_752_4621">
<rect width="246" height="168" fill="white" transform="translate(-151 1132)"/>
</clipPath>
</defs>
</svg>
